PathFileType	4	(X/Y/Z)	KinectAzureSkeleton.trc
DateRate	CameraRate	NumFrames	NumMarkers	Units	OrigDateRate	OrigDataStartFrame	OrigNumFrames
30	30	9	32	mm	30	161	183
Frame#	Time			PELVIS			SPINE_NAVAL			SPINE_CHEST			NECK			CLAVICLE_LEFT			SHOULDER_LEFT			ELBOW_LEFT			WRIST_LEFT			HAND_LEFT			HANDTIP_LEFT			THUMB_LEFT			CLAVICLE_RIGHT			SHOULDER_RIGHT			ELBOW_RIGHT			WRIST_RIGHT			HAND_RIGHT			HANDTIP_RIGHT			THUMB_RIGHT			HIP_LEFT			KNEE_LEFT			ANKLE_LEFT			FOOT_LEFT			HIP_RIGHT			KNEE_RIGHT			ANKLE_RIGHT			FOOT_RIGHT			HEAD			NOSE			EYE_LEFT			EAR_LEFT			EYE_RIGHT			EAR_RIGHT
		X1	Y1	Z1	X2	Y2	Z2	X3	Y3	Z3	X4	Y4	Z4	X5	Y5	Z5	X6	Y6	Z6	X7	Y7	Z7	X8	Y8	Z8	X9	Y9	Z9	X10	Y10	Z10	X11	Y11	Z11	X12	Y12	Z12	X13	Y13	Z13	X14	Y14	Z14	X15	Y15	Z15	X16	Y16	Z16	X17	Y17	Z17	X18	Y18	Z18	X19	Y19	Z19	X20	Y20	Z20	X21	Y21	Z21	X22	Y22	Z22	X23	Y23	Z23	X24	Y24	Z24	X25	Y25	Z25	X26	Y26	Z26	X27	Y27	Z27	X28	Y28	Z28	X29	Y29	Z29	X30	Y30	Z30	X31	Y31	Z31	X32	Y32	Z32

160	5.384400	-1295.691284	3.611718	50.131351	-1295.624756	177.775558	58.099026	-1306.178345	316.707611	61.775555	-1320.991943	528.236145	68.851151	-1332.171143	494.689056	47.509029	-1334.413330	483.567017	-91.728729	-1373.994873	227.414398	-167.544250	-1325.074829	10.192692	-209.917511	-1365.547852	-71.639763	-232.729965	-1394.568115	-160.260239	-183.187805	-1333.087891	-131.240936	-202.636871	-1326.125977	491.933563	96.999138	-1276.272949	452.492920	208.694702	-1239.274292	186.451706	268.424255	-1133.765747	-17.268330	275.422668	-1136.496704	-116.086395	253.208603	-1232.662231	-152.544800	239.204605	-1200.990601	-130.775284	216.697891	-1307.622437	7.651809	-38.080624	-1199.135132	-366.037872	-78.616516	-1493.545898	-588.351746	-17.850853	-1488.833008	-771.364929	-18.697020	-1284.931519	-0.034589	129.675705	-1256.011841	-389.645264	119.961128	-1372.543945	-748.935120	110.951111	-1249.846191	-862.663757	91.377411	-1295.999023	604.050537	68.676315	-1159.017090	678.963501	51.852203	-1197.375000	703.415771	21.477312	-1310.507690	676.119141	-20.995665	-1185.108643	702.262573	88.359314	-1284.498413	671.599182	163.029434
161	5.417733	-1269.999878	2.233324	47.936588	-1269.895508	177.594009	55.553608	-1278.861206	317.598755	58.581886	-1291.483765	530.694397	66.074272	-1303.058472	497.084015	44.501003	-1309.522095	480.827484	-95.051514	-1362.267212	224.425400	-168.504654	-1309.405029	5.952820	-207.837128	-1323.959839	-85.756775	-226.620514	-1358.140991	-172.352768	-175.293900	-1298.709473	-132.355576	-173.919601	-1297.107300	494.151764	94.333313	-1247.541748	447.583740	204.405106	-1203.356567	178.562851	253.581024	-1083.850342	-19.189745	250.322403	-1131.261719	-107.323036	270.071930	-1205.210083	-176.613358	295.566162	-1199.176025	-106.509003	235.826080	-1280.472900	6.105910	-41.075729	-1158.362671	-366.262970	-80.648415	-1397.945801	-653.837097	-40.731564	-1341.973877	-828.824036	-55.521122	-1260.555054	-1.261961	128.202682	-1249.442261	-394.500061	121.728264	-1378.848877	-751.964355	108.989159	-1256.218628	-868.428162	96.523079	-1265.496460	606.745178	66.093803	-1129.092773	685.805542	54.367039	-1167.433105	709.990051	23.099762	-1279.352905	680.460999	-23.360363	-1156.969116	707.976257	90.733040	-1258.315430	673.373535	162.485733
162	5.451066	-1247.037598	-0.270003	45.321712	-1246.443115	175.795456	53.742306	-1256.175537	316.332214	57.253166	-1269.423584	530.326050	63.792004	-1280.673340	496.466522	42.097500	-1284.547852	481.745880	-98.318893	-1346.629883	226.150574	-171.546707	-1300.981934	4.034683	-204.615402	-1303.916382	-85.245880	-237.352142	-1297.382202	-177.942719	-184.797760	-1253.774536	-131.378082	-205.866821	-1275.380737	493.723145	92.228691	-1223.683350	446.936279	201.870209	-1166.711304	178.375900	246.839813	-1032.668701	-10.765717	236.412689	-1097.544312	-58.947033	299.366638	-1166.215698	-128.761475	261.655487	-1118.115479	-125.080750	267.149231	-1255.160400	4.043540	-44.296574	-1118.193970	-365.167725	-81.343376	-1273.755371	-709.552185	-71.740288	-1171.585815	-862.616394	-91.551308	-1239.712158	-4.162934	126.134232	-1241.658203	-399.196899	118.590157	-1381.784180	-753.989563	98.559944	-1265.075195	-877.625854	88.864861	-1243.497070	606.756165	63.881866	-1104.345093	683.177734	62.407810	-1140.541260	709.516541	29.937944	-1250.877930	684.314270	-23.717978	-1133.770874	704.773499	98.196083	-1240.043945	669.910095	163.373932
163	5.484400	-1224.797485	0.009127	40.336113	-1223.443237	177.410126	48.917786	-1233.090088	319.028687	52.545410	-1246.465576	534.665222	58.784092	-1257.953735	500.497650	37.081398	-1264.808594	481.406097	-103.783035	-1326.067017	223.405533	-177.072083	-1264.825317	2.739027	-206.626572	-1259.945190	-91.710686	-222.295334	-1260.596436	-184.998245	-168.731552	-1212.649902	-128.532593	-176.171631	-1252.238892	497.840851	87.559372	-1201.148438	450.978058	198.623978	-1133.417847	183.318466	247.101257	-976.802734	10.315150	232.344742	-1051.741089	-54.934364	260.292633	-1127.808350	-125.924706	241.453979	-1049.432373	-116.268112	213.848206	-1232.774902	4.439067	-49.980988	-1082.193359	-362.750244	-86.652725	-1199.239746	-725.217773	-86.380226	-1076.566040	-863.821411	-109.296501	-1217.603149	-3.988794	121.778770	-1225.052490	-401.967102	113.814552	-1381.087402	-753.128784	91.684456	-1267.118530	-881.282471	85.918900	-1220.368408	611.687744	58.516689	-1077.973511	684.450378	53.895988	-1114.681763	712.798462	23.009737	-1228.333618	691.972961	-27.767647	-1105.718628	706.285339	91.399940	-1211.584229	672.941772	159.921082
164	5.517733	-1200.945679	-0.930535	37.917805	-1199.876465	176.355774	46.942390	-1208.855713	317.937866	50.747482	-1219.515381	533.645264	55.634254	-1231.348999	499.512848	34.106007	-1239.493530	481.474426	-106.752052	-1300.599731	223.242584	-178.793167	-1238.761963	2.219990	-203.002121	-1251.298706	-89.940277	-226.015213	-1268.375732	-179.815735	-169.530487	-1213.268311	-138.414108	-182.220535	-1225.857788	497.091705	84.593376	-1173.115112	453.935486	196.303802	-1102.778320	186.322067	240.250229	-963.438293	-0.379711	221.682022	-1048.681030	-37.727226	266.200012	-1122.494263	-81.127274	204.257339	-1078.872314	-91.429443	220.129517	-1207.884155	3.710173	-52.425945	-1052.352539	-361.641541	-84.152298	-1147.903076	-730.048523	-92.789360	-1018.881653	-863.538757	-109.575249	-1194.688232	-5.118510	119.384499	-1208.724487	-402.688232	110.537384	-1370.440918	-750.864868	85.753128	-1261.147583	-882.953918	81.107330	-1192.457886	610.287659	55.001766	-1050.982178	683.989319	44.161358	-1088.516479	710.449341	12.652352	-1202.812500	686.154907	-34.866131	-1078.231934	707.361389	81.059685	-1182.419312	676.454407	153.074387
165	5.551066	-1173.404175	-0.758358	35.790680	-1170.281494	173.890976	44.445900	-1179.166016	313.384247	47.834309	-1191.443115	525.838196	50.760029	-1202.287720	491.962921	29.513441	-1207.168335	472.904449	-109.235115	-1273.655029	219.718246	-178.964996	-1218.959717	0.133365	-201.030579	-1229.805542	-91.118454	-222.617874	-1216.987183	-173.746872	-157.592239	-1177.918823	-135.902145	-193.492828	-1198.145752	489.989105	79.393127	-1149.092041	446.252838	190.303864	-1070.892456	185.272217	234.609024	-908.771179	23.811966	208.910782	-972.997986	-41.155979	253.456863	-1060.551758	-91.207771	227.576035	-1004.761353	-84.289474	199.841217	-1177.950562	3.741315	-53.365807	-1028.489868	-358.086914	-80.894142	-1112.523804	-723.446716	-91.858772	-979.166931	-848.683411	-107.939941	-1169.303833	-4.819120	116.186806	-1189.096558	-396.253265	107.696030	-1354.241333	-736.237793	79.719780	-1248.375977	-867.898315	76.905075	-1165.367676	601.549866	50.249702	-1024.715942	672.003601	42.065609	-1060.200562	697.395630	8.798370	-1171.372559	673.188293	-41.192116	-1052.529907	696.649597	76.581749	-1158.055054	670.036499	144.795715
166	5.584400	-1149.944092	-1.479378	31.484417	-1147.566772	172.611069	39.925575	-1155.296387	311.718964	42.839970	-1165.530640	523.593567	43.365604	-1176.190918	489.720795	22.289986	-1179.956665	465.472717	-115.208824	-1240.627686	211.049316	-182.197556	-1186.378418	-8.591786	-195.168137	-1177.018066	-102.084320	-199.966858	-1150.260986	-189.954849	-147.922913	-1112.546753	-127.743034	-173.614899	-1173.196289	488.221619	72.101570	-1127.341797	447.404968	184.979996	-1048.767334	187.114212	226.920044	-884.843811	29.247866	197.438354	-960.497009	-25.698801	236.416397	-1049.137207	-57.024143	192.479126	-995.408386	-61.953854	180.089172	-1152.177490	2.864291	-57.470619	-1010.700134	-361.191467	-78.518387	-1084.737549	-727.304871	-93.253044	-947.361450	-847.842529	-103.347672	-1147.929321	-5.399451	111.698914	-1172.644775	-395.254730	103.442513	-1339.875244	-732.585938	72.869614	-1236.364990	-865.422302	73.753433	-1138.802734	598.794006	42.688114	-1002.160889	675.945496	37.600681	-1037.898560	699.262024	3.397824	-1146.044067	669.316772	-49.040630	-1031.949341	699.263794	71.130753	-1137.356689	667.833679	136.622086
167	5.617733	-1120.330322	-0.930168	29.712999	-1117.155151	171.765396	37.750896	-1125.304810	309.736481	40.248890	-1136.732422	519.845032	39.992687	-1146.869385	486.116028	19.075769	-1144.936035	460.732452	-117.115379	-1206.740601	208.254242	-181.681549	-1167.898682	-12.476206	-199.044998	-1156.797974	-105.092888	-202.022583	-1121.308228	-178.411438	-136.201859	-1092.624023	-128.830765	-174.829407	-1144.442749	484.799744	68.521988	-1100.499634	442.439941	180.418289	-1023.029907	183.940948	221.044739	-857.039246	31.109289	190.891113	-928.107178	-32.619797	222.286285	-1021.700745	-59.671833	189.043854	-967.664551	-55.417122	162.870514	-1121.364624	3.197322	-58.558262	-993.509338	-362.638519	-77.683350	-1060.730835	-727.004578	-92.565819	-921.850464	-843.755554	-99.569763	-1119.396973	-4.655281	109.310921	-1149.468994	-390.982697	100.865547	-1317.592896	-724.102722	66.566559	-1217.076172	-857.520020	68.392929	-1110.664673	594.599121	39.381042	-973.084839	667.375610	33.868763	-1008.111023	691.700134	0.337707	-1116.525024	665.321472	-51.112770	-1001.752258	691.098999	67.482414	-1106.691650	662.407715	132.981262
168	5.651066	-1095.115356	-4.856233	26.221094	-1092.443481	167.307434	33.755825	-1100.847656	304.818207	35.924484	-1111.698120	514.261719	33.853653	-1121.778564	480.494324	13.234189	-1115.800781	455.026703	-122.364693	-1175.100708	202.479340	-185.382187	-1140.170288	-18.257364	-201.478058	-1145.710083	-110.948265	-207.052383	-1100.289307	-176.079605	-139.294525	-1082.987793	-145.936905	-191.962280	-1119.622681	479.590057	62.540905	-1075.974854	439.629211	174.962402	-999.645020	181.615295	214.869751	-836.354126	27.441338	182.473724	-905.699951	-39.310356	210.177307	-998.407166	-77.338127	188.108353	-942.131897	-62.460667	149.226196	-1096.659058	-0.981514	-61.766365	-978.832947	-368.794495	-81.799316	-1042.353882	-732.670471	-94.800415	-903.063599	-847.942322	-102.805824	-1093.722412	-8.353400	105.563103	-1127.513184	-393.147034	99.172867	-1292.854248	-726.827820	70.564430	-1193.788208	-860.631042	67.660553	-1085.520874	588.698975	32.756836	-949.063843	662.639893	29.643084	-983.116211	685.520325	-5.579820	-1089.148193	656.530640	-59.573677	-978.973694	686.894226	61.506741	-1085.348389	658.948669	124.150772
